<?xml version="1.0" standalone="no"?>
<!DOCTYPE svg PUBLIC "-//W3C//DTD SVG 20010904//EN"
 "http://www.w3.org/TR/2001/REC-SVG-20010904/DTD/svg10.dtd">
<svg version="1.0" xmlns="http://www.w3.org/2000/svg"
 width="360.000000pt" height="360.000000pt" viewBox="0 0 360.000000 360.000000"
 preserveAspectRatio="xMidYMid meet">

<g transform="translate(0.000000,360.000000) scale(0.100000,-0.100000)"
fill="#000000" stroke="none">
<path d="M1491 2605 c-63 -59 -109 -139 -123 -213 -11 -60 -13 -62 -68 -96
-111 -69 -196 -103 -286 -116 -161 -23 -204 -5 -254 106 -15 33 -42 73 -61 88
-28 24 -39 27 -72 23 -22 -3 -48 -14 -58 -24 -10 -10 -37 -66 -59 -125 -42
-113 -59 -218 -60 -371 0 -58 -5 -88 -19 -115 -24 -45 -61 -160 -60 -187 0
-11 -2 -30 -6 -42 -7 -20 -4 -23 23 -23 38 0 56 22 49 59 -3 16 0 36 7 47 7
10 16 39 19 64 3 26 13 50 23 57 16 11 19 37 26 181 6 122 13 185 29 236 28
95 65 175 84 182 26 10 62 -23 79 -72 22 -65 58 -108 112 -134 41 -21 55 -22
138 -16 130 9 196 29 314 94 133 74 148 88 155 150 7 60 36 124 81 176 l33 38
144 -116 c82 -66 153 -116 166 -116 12 0 49 -23 82 -51 46 -38 66 -49 82 -44
22 7 59 -18 59 -41 0 -24 73 -74 107 -74 26 0 34 -5 39 -25 7 -29 69 -68 95
-60 12 4 21 -1 29 -14 5 -11 29 -26 53 -33 23 -6 53 -20 66 -30 13 -10 31 -18
40 -18 10 0 46 -11 81 -25 63 -25 188 -45 388 -64 136 -12 162 -35 177 -153 6
-49 4 -62 -15 -95 -12 -21 -39 -53 -59 -70 l-36 -33 47 0 c42 0 50 4 78 38 45
55 56 99 43 183 -13 81 -47 140 -94 164 -17 9 -74 21 -127 26 -241 23 -288 31
-378 60 -53 17 -110 39 -128 50 -17 10 -39 19 -48 19 -9 0 -31 12 -49 27 -17
15 -44 28 -60 29 -34 2 -49 11 -49 28 0 21 -47 58 -77 61 -40 3 -63 15 -63 32
0 26 -55 71 -96 79 -24 4 -54 21 -80 44 -23 21 -56 41 -75 45 -39 8 -271 188
-287 221 -19 40 -50 37 -101 -11z"/>
<path d="M473 1420 c-61 -37 -71 -95 -23 -140 17 -16 43 -31 58 -35 45 -9 92
-43 92 -65 0 -31 -43 -53 -93 -47 -23 2 -50 8 -59 12 -13 5 -20 1 -27 -16 -12
-32 -3 -39 62 -46 73 -7 120 2 157 33 24 21 30 33 30 66 0 49 -30 80 -109 111
-70 28 -85 51 -51 79 21 17 34 19 78 14 48 -6 53 -4 61 16 11 29 -5 36 -84 37
-43 1 -69 -5 -92 -19z"/>
<path d="M740 1261 l0 -181 36 0 35 0 -3 135 c-2 74 0 135 5 135 4 0 7 -5 7
-11 0 -6 37 -67 81 -135 81 -123 81 -124 120 -124 l39 0 0 180 0 180 -36 0
-36 0 4 -131 c2 -90 0 -125 -7 -114 -5 9 -44 67 -85 128 -74 111 -75 112 -117
115 l-43 3 0 -180z"/>
<path d="M1144 1427 c-2 -7 -3 -87 -2 -177 l3 -165 123 -3 123 -3 -3 28 c-3
28 -4 28 -85 31 l-83 3 0 49 0 50 75 0 c73 0 75 1 75 25 0 24 -2 25 -75 25
l-75 0 0 45 0 44 78 3 c76 3 77 3 80 31 l3 27 -116 0 c-85 0 -117 -3 -121 -13z"/>
<path d="M1550 1437 c0 -2 -27 -77 -60 -167 -33 -90 -60 -169 -60 -177 0 -8
13 -13 34 -13 32 0 35 3 51 50 l17 51 65 -3 65 -3 18 -45 c16 -41 21 -45 54
-48 25 -2 36 1 36 10 -1 7 -29 87 -63 178 l-62 165 -47 3 c-27 2 -48 1 -48 -1z
m90 -194 c0 -9 -16 -13 -45 -13 -25 0 -45 3 -45 7 0 4 10 37 22 75 l22 68 23
-62 c12 -35 23 -69 23 -75z"/>
<path d="M1830 1260 l0 -180 35 0 35 0 0 63 c0 49 4 68 18 80 10 10 21 17 24
17 2 0 29 -36 59 -80 53 -80 54 -80 98 -80 33 0 41 3 34 13 -42 54 -133 186
-133 192 0 4 30 40 66 81 l66 74 -45 0 c-44 0 -47 -2 -112 -80 -37 -44 -68
-80 -69 -80 -2 0 -3 17 -3 38 -1 127 0 122 -38 122 l-35 0 0 -180z"/>
<path d="M2180 1260 l0 -180 120 0 120 0 0 30 0 30 -85 0 -85 0 0 50 0 50 73
0 c41 0 76 3 79 6 3 3 4 14 1 24 -4 16 -16 20 -77 22 l-71 3 -3 43 -3 42 80 0
81 0 0 30 0 30 -115 0 -115 0 0 -180z"/>
<path d="M2503 1434 c-10 -4 -13 -50 -13 -180 l0 -174 35 0 35 0 0 75 0 75 29
0 c41 0 68 -27 88 -90 17 -53 19 -55 57 -58 32 -3 38 -1 33 13 -4 9 -14 40
-23 70 -8 31 -25 62 -37 71 -17 12 -19 17 -8 21 44 17 69 72 52 115 -17 46
-54 62 -150 65 -47 1 -92 0 -98 -3z m161 -60 c23 -22 20 -71 -3 -84 -11 -5
-38 -10 -60 -10 l-41 0 0 55 0 55 44 0 c27 0 51 -6 60 -16z"/>
<path d="M2875 1425 c-42 -22 -55 -43 -55 -86 0 -46 35 -79 110 -104 56 -19
77 -44 60 -75 -17 -32 -68 -37 -146 -15 -16 5 -23 1 -27 -17 -9 -33 5 -42 77
-46 109 -7 176 32 176 102 -1 45 -22 67 -103 106 -76 37 -89 56 -61 85 15 14
29 16 75 11 53 -5 58 -4 64 15 5 14 2 25 -6 30 -23 14 -132 10 -164 -6z"/>
</g>
</svg>
